<svg xmlns="http://www.w3.org/2000/svg" width="128" height="128" viewBox="0 0 128 128">
  <!-- ui-replay: Replay viewer. Original placeholder generated by art/placeholders (no external input). -->
  <rect x="0" y="0" width="128" height="128" rx="23.04" fill="#26262e"/>
  <polyline points="59.04,35.86 55.41,36.75 51.93,38.11 48.65,39.9 45.64,42.11 42.94,44.7 40.6,47.61 38.66,50.81 37.15,54.23 36.11,57.82 35.54,61.51 35.46,65.25 35.86,68.96 36.75,72.59 38.11,76.07 39.9,79.35 42.11,82.36 44.7,85.06 47.61,87.4 50.81,89.34 54.23,90.85 57.82,91.89 61.51,92.46 65.25,92.54 68.96,92.14 72.59,91.25 76.07,89.89 79.35,88.1 82.36,85.89 85.06,83.3 87.4,80.39 89.34,77.19 90.85,73.77 91.89,70.18 92.46,66.49 92.54,62.75 92.14,59.04 91.25,55.41 89.89,51.93 88.1,48.65 85.89,45.64" fill="none" stroke="#ffffff" stroke-width="7.37" stroke-linecap="round" stroke-linejoin="round"/>
  <polygon points="49.25,47.87 63.08,31.74 48.33,20.22" fill="#ffffff"/>
</svg>
